<svg width="405" height="122" viewBox="0 0 405 122" fill="none" xmlns="http://www.w3.org/2000/svg">
<g id="Olimi Logo 2" clip-path="url(#clip0_2265_1430)">
<g id="Clip path group">
<mask id="mask0_2265_1430" style="mask-type:luminance" maskUnits="userSpaceOnUse" x="0" y="0" width="405" height="122">
<g id="clip0_645_2593">
<path id="Vector" d="M405 0H0V122H405V0Z" fill="white"/>
</g>
</mask>
<g mask="url(#mask0_2265_1430)">
<g id="Group">
<path id="Vector_2" fill-rule="evenodd" clip-rule="evenodd" d="M36.8761 16.7988C16.51 16.7988 0 33.1695 0 53.3638V80.8901C0 101.085 16.51 117.455 36.8761 117.455H49.1031C69.4693 117.455 85.9794 101.085 85.9794 80.8901V53.3638C85.9794 33.1695 69.4693 16.7988 49.1031 16.7988H36.8761ZM39.0805 40.9259C32.77 40.9259 27.6542 45.9984 27.6542 52.2557V81.9983C27.6542 88.2558 32.77 93.328 39.0805 93.328H46.8987C53.2093 93.328 58.3251 88.2558 58.3251 81.9983V52.2557C58.3251 45.9984 53.2093 40.9259 46.8987 40.9259H39.0805Z" fill="white"/>
<path id="Vector_3" d="M164.919 23.3936C164.919 20.5494 167.244 18.2437 170.113 18.2437H187.396C190.264 18.2437 192.59 20.5494 192.59 23.3936V112.307C192.59 115.151 190.264 117.457 187.396 117.457H170.113C167.244 117.457 164.919 115.151 164.919 112.307V23.3936Z" fill="white"/>
<path id="Vector_4" d="M375.714 23.3936C375.714 20.5494 378.04 18.2437 380.909 18.2437H398.191C401.06 18.2437 403.385 20.5494 403.385 23.3936V112.307C403.385 115.151 401.06 117.457 398.191 117.457H380.909C378.04 117.457 375.714 115.151 375.714 112.307V23.3936Z" fill="white"/>
<path id="Vector_5" fill-rule="evenodd" clip-rule="evenodd" d="M96.9388 18.2437C94.0705 18.2437 91.7451 20.5494 91.7451 23.3936V96.735V112.307C91.7451 115.152 94.0705 117.457 96.9388 117.457H114.222H153.44C156.309 117.457 158.634 115.152 158.634 112.307V96.735C158.634 93.8909 156.309 91.5851 153.44 91.5851H119.416V23.3936C119.416 20.5494 117.09 18.2437 114.222 18.2437H96.9388Z" fill="white"/>
<path id="Vector_6" d="M300.269 3.12256L367.742 118.439H232.796L300.269 3.12256Z" fill="white"/>
<path id="Vector_7" fill-rule="evenodd" clip-rule="evenodd" d="M221.588 118.442L261.042 51.0107L249.686 31.6021L198.875 118.442H221.588Z" fill="#D3D3D3"/>
</g>
</g>
</g>
</g>
<defs>
<clipPath id="clip0_2265_1430">
<rect width="405" height="122" fill="white"/>
</clipPath>
</defs>
</svg>
