<svg width="79" height="24" viewBox="0 0 79 24" fill="none" xmlns="http://www.w3.org/2000/svg">
<path fill-rule="evenodd" clip-rule="evenodd" d="M7.50806 3.36539C3.53541 3.36539 0.314941 6.58584 0.314941 10.5585V15.9735C0.314941 19.9462 3.53541 23.1666 7.50806 23.1666H9.89308C13.8657 23.1666 17.0862 19.9462 17.0862 15.9735V10.5585C17.0862 6.58584 13.8657 3.36539 9.89308 3.36539H7.50806ZM7.93806 8.1117C6.70711 8.1117 5.70921 9.10958 5.70921 10.3406V16.1915C5.70921 17.4225 6.70711 18.4203 7.93806 18.4203H9.46308C10.694 18.4203 11.6919 17.4225 11.6919 16.1915V10.3406C11.6919 9.10958 10.694 8.1117 9.46308 8.1117H7.93806Z" fill="#CCCCCC"/>
<path d="M32.4844 4.66227C32.4844 4.10274 32.938 3.64915 33.4975 3.64915H36.8688C37.4283 3.64915 37.8819 4.10274 37.8819 4.66227V22.1535C37.8819 22.713 37.4283 23.1666 36.8688 23.1666H33.4975C32.938 23.1666 32.4844 22.713 32.4844 22.1535V4.66227Z" fill="#CCCCCC"/>
<path d="M73.6025 4.66227C73.6025 4.10274 74.0561 3.64915 74.6157 3.64915H77.9869C78.5465 3.64915 79 4.10274 79 4.66227V22.1535C79 22.713 78.5465 23.1666 77.9869 23.1666H74.6157C74.0561 23.1666 73.6025 22.713 73.6025 22.1535V4.66227Z" fill="#CCCCCC"/>
<path fill-rule="evenodd" clip-rule="evenodd" d="M19.2239 3.64915C18.6644 3.64915 18.2108 4.10273 18.2108 4.66227V19.0901V22.1535C18.2108 22.713 18.6644 23.1666 19.2239 23.1666H22.5952H30.2453C30.8048 23.1666 31.2584 22.713 31.2584 22.1535V19.0901C31.2584 18.5306 30.8048 18.077 30.2453 18.077H23.6083V4.66227C23.6083 4.10273 23.1547 3.64915 22.5952 3.64915H19.2239Z" fill="#CCCCCC"/>
<path d="M58.8861 0.675537L72.0474 23.3607H45.7247L58.8861 0.675537Z" fill="#CCCCCC"/>
<path fill-rule="evenodd" clip-rule="evenodd" d="M43.5382 23.3607L51.2343 10.0956L49.0191 6.27753L39.1079 23.3607H43.5382Z" fill="white"/>
</svg>
