<svg width="778" height="225" viewBox="0 0 778 225" fill="none" xmlns="http://www.w3.org/2000/svg">
<g id="Group 14">
<path id="Exclude" fill-rule="evenodd" clip-rule="evenodd" d="M71.9312 13.3384C32.719 13.3384 0.931152 45.126 0.931152 84.3384V137.788C0.931152 177 32.719 208.788 71.9312 208.788H95.4727C134.685 208.788 166.473 177 166.473 137.788V84.3384C166.473 45.126 134.685 13.3384 95.4727 13.3384H71.9312ZM76.1755 60.187C64.0254 60.187 54.1755 70.0366 54.1755 82.187V139.939C54.1755 152.089 64.0254 161.939 76.1755 161.939H91.2283C103.378 161.939 113.228 152.089 113.228 139.939V82.187C113.228 70.0366 103.378 60.187 91.2283 60.187H76.1755Z" fill="#070707"/>
<path id="Rectangle 5" d="M318.461 26.1396C318.461 20.6168 322.939 16.1396 328.461 16.1396H361.738C367.261 16.1396 371.738 20.6168 371.738 26.1396V198.788C371.738 204.31 367.261 208.788 361.738 208.788H328.461C322.939 208.788 318.461 204.31 318.461 198.788V26.1396Z" fill="#070707"/>
<path id="Rectangle 6" d="M724.319 26.1396C724.319 20.6168 728.796 16.1396 734.319 16.1396H767.596C773.119 16.1396 777.596 20.6168 777.596 26.1396V198.788C777.596 204.31 773.119 208.788 767.596 208.788H734.319C728.796 208.788 724.319 204.31 724.319 198.788V26.1396Z" fill="#070707"/>
<path id="Union" fill-rule="evenodd" clip-rule="evenodd" d="M187.574 16.1396C182.051 16.1396 177.574 20.6167 177.574 26.1396V168.55V198.788C177.574 204.311 182.051 208.788 187.574 208.788H220.85H296.36C301.883 208.788 306.36 204.311 306.36 198.788V168.55C306.36 163.027 301.883 158.55 296.36 158.55H230.85V26.1396C230.85 20.6167 226.373 16.1396 220.85 16.1396H187.574Z" fill="#070707"/>
<g id="Group 10">
<path id="Polygon 1" d="M579.06 0.116699L708.97 224.032H449.15L579.06 0.116699Z" fill="#070707"/>
<path id="Subtract" fill-rule="evenodd" clip-rule="evenodd" d="M427.568 224.032L503.533 93.0981L481.668 55.4116L383.839 224.032H427.568Z" fill="#949494"/>
</g>
</g>
</svg>
