<svg width="79" height="23" viewBox="0 0 79 23" fill="none" xmlns="http://www.w3.org/2000/svg">
<path fill-rule="evenodd" clip-rule="evenodd" d="M7.19312 2.80457C3.22047 2.80457 0 6.02502 0 9.99769V15.4127C0 19.3854 3.22047 22.6058 7.19312 22.6058H9.57814C13.5508 22.6058 16.7713 19.3854 16.7713 15.4127V9.99769C16.7713 6.02502 13.5508 2.80457 9.57814 2.80457H7.19312ZM7.62312 7.55088C6.39217 7.55088 5.39427 8.54876 5.39427 9.77973V15.6307C5.39427 16.8616 6.39217 17.8595 7.62312 17.8595H9.14814C10.3791 17.8595 11.377 16.8616 11.377 15.6307V9.77973C11.377 8.54876 10.3791 7.55088 9.14814 7.55088H7.62312Z" fill="#333333"/>
<path d="M32.1694 4.10145C32.1694 3.54192 32.623 3.08833 33.1825 3.08833H36.5538C37.1134 3.08833 37.5669 3.54192 37.5669 4.10145V21.5927C37.5669 22.1522 37.1134 22.6058 36.5538 22.6058H33.1825C32.623 22.6058 32.1694 22.1522 32.1694 21.5927V4.10145Z" fill="#333333"/>
<path d="M73.2876 4.10145C73.2876 3.54192 73.7412 3.08833 74.3007 3.08833H77.672C78.2315 3.08833 78.6851 3.54192 78.6851 4.10145V21.5927C78.6851 22.1522 78.2315 22.6058 77.672 22.6058H74.3007C73.7412 22.6058 73.2876 22.1522 73.2876 21.5927V4.10145Z" fill="#333333"/>
<path fill-rule="evenodd" clip-rule="evenodd" d="M18.909 3.08833C18.3495 3.08833 17.8959 3.54191 17.8959 4.10145V18.5293V21.5927C17.8959 22.1522 18.3495 22.6058 18.909 22.6058H22.2803H29.9303C30.4899 22.6058 30.9434 22.1522 30.9434 21.5927V18.5293C30.9434 17.9697 30.4899 17.5162 29.9303 17.5162H23.2934V4.10145C23.2934 3.54191 22.8398 3.08833 22.2803 3.08833H18.909Z" fill="#333333"/>
<path d="M58.5711 0.114723L71.7325 22.7999H45.4098L58.5711 0.114723Z" fill="#333333"/>
<path fill-rule="evenodd" clip-rule="evenodd" d="M43.2233 22.7999L50.9193 9.5348L48.7042 5.71672L38.793 22.7999H43.2233Z" fill="#949494"/>
</svg>
